<svg width="32" height="32" viewBox="0 0 32 32" fill="none" xmlns="http://www.w3.org/2000/svg">
<rect x="-0.00158691" width="32" height="32" rx="2.73135" fill="#0C41FF" style="fill:#0C41FF;fill:color(display-p3 0.0481 0.2543 1.0000);fill-opacity:1;"/>
<path d="M23.0436 20.6983V16.7857C23.0436 12.9019 19.8834 9.74285 15.9984 9.74285C12.1134 9.74285 8.95325 12.9019 8.95325 16.7857V20.6983C7.6585 20.6983 6.60486 21.7516 6.60486 23.0459V25.3935H25.392V23.0459C25.392 21.7516 24.3383 20.6983 23.0436 20.6983ZM10.5188 16.7857C10.5188 13.7659 12.9776 11.3079 15.9984 11.3079C19.0192 11.3079 21.478 13.7659 21.478 16.7857V20.6983H10.5188V16.7857ZM23.8264 23.8285H8.17045V23.0459C8.17045 22.614 8.52114 22.2634 8.95325 22.2634H23.0436C23.4757 22.2634 23.8264 22.614 23.8264 23.0459V23.8285ZM8.43269 11.8134L6.61895 10.0762L7.70156 8.94701L9.51529 10.6842L8.43269 11.8134ZM11.1091 9.37036L10.1603 7.24421L11.5897 6.60645L12.5384 8.73259L11.1091 9.37036ZM23.5649 11.8134L22.4823 10.6842L24.296 8.94701L25.3786 10.0762L23.5649 11.8134ZM20.8877 9.37036L19.4584 8.73338L20.4079 6.60645L21.8373 7.24343L20.8877 9.37036ZM15.9984 13.6563V15.2214C15.135 15.2214 14.4328 15.9233 14.4328 16.7864H12.8672C12.8672 15.0602 14.2716 13.6563 15.9984 13.6563Z" fill="white" style="fill:white;fill-opacity:1;"/>
</svg>
