<svg width="51" height="52" viewBox="0 0 51 52" fill="none" xmlns="http://www.w3.org/2000/svg">
<path d="M25.2588 2.29675C25.3657 2.11181 25.6331 2.11205 25.7402 2.29675L45.8984 37.2118C46.0054 37.397 45.872 37.6286 45.6582 37.6288H5.3418C5.1279 37.6287 4.99461 37.397 5.10156 37.2118L25.2588 2.29675Z" fill="#FFCCCC" stroke="#FC2E2E" style="fill:#FFCCCC;fill:color(display-p3 1.0000 0.8000 0.8000);fill-opacity:1;stroke:#FC2E2E;stroke:color(display-p3 0.9880 0.1803 0.1803);stroke-opacity:1;" stroke-width="1.66757"/>
<path d="M28.9749 25.3876L29.9213 24.2657C30.2532 23.826 30.1385 23.1886 29.6656 22.9103C29.515 22.8215 29.285 22.6458 29.0422 22.4791C29.2369 22.0135 29.3452 21.5018 29.3452 20.9649H29.986C30.3404 20.9649 30.6268 20.675 30.6268 20.3164C30.6268 19.9577 30.3404 19.6679 29.986 19.6679H29.3452C29.3452 18.7561 28.3898 15.7769 27.1025 15.7769C26.5931 15.7769 26.0683 16.0162 25.5006 16.5084C24.9322 16.0162 24.408 15.7769 23.8986 15.7769C22.6113 15.7769 21.6559 18.7561 21.6559 19.6679H21.0151C20.6608 19.6679 20.3743 19.9577 20.3743 20.3164C20.3743 20.675 20.6608 20.9649 21.0151 20.9649H21.6559C21.6559 21.5018 21.7642 22.0135 21.959 22.4791C21.7161 22.6458 21.4861 22.8215 21.3355 22.9103C20.8632 23.1886 20.7479 23.826 21.0798 24.2657L22.0314 25.3941C20.5973 26.4836 19.7329 28.1762 19.7329 30.0438V30.6923C19.7329 31.051 20.0193 31.3408 20.3737 31.3408C20.728 31.3408 21.0145 31.051 21.0145 30.6923V30.0438C21.0145 28.5646 21.7097 27.2242 22.8625 26.3798L24.8591 28.7468V30.6923C24.8591 31.051 25.1456 31.3408 25.4999 31.3408C25.8543 31.3408 26.1407 31.051 26.1407 30.6923V28.7468L28.1393 26.3772C29.2889 27.2255 29.9854 28.5841 29.9854 30.0438V30.6923C29.9854 31.051 30.2718 31.3408 30.6262 31.3408C30.9805 31.3408 31.2669 31.051 31.2669 30.6923V30.0438C31.2669 28.2008 30.4038 26.4823 28.9742 25.3876H28.9749ZM24.5394 26.1528L24.012 24.5523C24.4702 24.7475 24.9726 24.8558 25.5006 24.8558C26.0286 24.8558 26.5309 24.7475 26.9891 24.5523L26.4617 26.1528H24.5394ZM23.9755 17.0816C24.1114 17.1076 24.3484 17.2081 24.7162 17.5369C25.1629 17.9357 25.837 17.9364 26.2849 17.5369C26.652 17.2087 26.8891 17.1082 27.025 17.0823C27.3851 17.3955 28.063 18.9668 28.063 19.6685H22.9368C22.9368 18.9668 23.6148 17.3955 23.9749 17.0823L23.9755 17.0816ZM28.0637 20.9649C28.0637 22.3954 26.9141 23.5588 25.5006 23.5588C24.087 23.5588 22.9374 22.3954 22.9374 20.9649H28.0637Z" fill="#FC2E2E" style="fill:#FC2E2E;fill:color(display-p3 0.9880 0.1803 0.1803);fill-opacity:1;"/>
</svg>
