<svg width="51" height="52" viewBox="0 0 51 52" fill="none" xmlns="http://www.w3.org/2000/svg">
<path d="M25.2588 2.63037C25.3657 2.44543 25.6331 2.44567 25.7402 2.63037L45.8984 37.5454C46.0054 37.7306 45.872 37.9622 45.6582 37.9624H5.3418C5.1279 37.9623 4.99461 37.7307 5.10156 37.5454L25.2588 2.63037Z" fill="#FFCCCC" stroke="#FC2E2E" style="fill:#FFCCCC;fill:color(display-p3 1.0000 0.8000 0.8000);fill-opacity:1;stroke:#FC2E2E;stroke:color(display-p3 0.9880 0.1803 0.1803);stroke-opacity:1;" stroke-width="1.66757"/>
<g clip-path="url(#clip0_3631_142)">
<path d="M31.25 25.2503V24.0837H32.4167V21.167H31.6105L32.4855 19.417H21.9167C20.9518 19.417 20.1667 20.2022 20.1667 21.167V23.5003C20.1667 24.4652 20.9518 25.2503 21.9167 25.2503H24.8666L23.6964 28.3717C23.6113 28.5987 23.3919 28.7503 23.1498 28.7503H20.1667V26.417H19V32.2503H20.1667V29.917H23.1498C23.8749 29.917 24.5335 29.4608 24.789 28.7818L26.1132 25.2503H31.25ZM21.3333 23.5003V21.167C21.3333 20.845 21.5953 20.5837 21.9167 20.5837H30.5978L30.0833 21.6127V24.0837H21.9167C21.5953 24.0837 21.3333 23.8223 21.3333 23.5003ZM28.9167 26.417L24.8333 33.417H33L28.9167 26.417ZM29.5 32.8337H28.3333V31.667H29.5V32.8337ZM28.3333 31.0837V28.7503H29.5V31.0837H28.3333Z" fill="#FC2E2E" style="fill:#FC2E2E;fill:color(display-p3 0.9880 0.1803 0.1803);fill-opacity:1;"/>
</g>
<defs>
<clipPath id="clip0_3631_142">
<rect width="14" height="14" fill="white" style="fill:white;fill-opacity:1;" transform="translate(19 19.417)"/>
</clipPath>
</defs>
</svg>
