<svg width="32" height="32" viewBox="0 0 32 32" fill="none" xmlns="http://www.w3.org/2000/svg">
<rect x="-0.00158691" width="32" height="32" rx="2.73135" fill="#0C41FF" style="fill:#0C41FF;fill:color(display-p3 0.0481 0.2543 1.0000);fill-opacity:1;"/>
<g clip-path="url(#clip0_3677_112)">
<path d="M20.6952 14.4345C21.7144 14.4345 22.5755 13.7777 22.8995 12.8689H23.8264C24.2585 12.8689 24.6092 12.5182 24.6092 12.0861V9.73768C24.6092 9.30558 24.2585 8.95488 23.8264 8.95488H23.5273L24.1348 7.7392C24.2561 7.49653 24.2428 7.20847 24.1003 6.97754C23.9579 6.74662 23.7058 6.60571 23.4342 6.60571H11.3016C9.57479 6.6065 8.17045 8.01083 8.17045 9.73768V11.3033C8.17045 13.0301 9.57479 14.4345 11.3016 14.4345H14.4774L13.2876 17.6079C12.9455 18.5191 12.0625 19.1312 11.0887 19.1312H8.17045V16.7828C8.17045 16.35 7.81976 16 7.38765 16C6.95555 16 6.60486 16.35 6.60486 16.7828V23.0452C6.60486 23.4781 6.95555 23.828 7.38765 23.828C7.81976 23.828 8.17045 23.4781 8.17045 23.0452V20.6968H11.0887C12.7114 20.6968 14.1839 19.6761 14.7538 18.1574L16.1503 14.4345H20.6952ZM9.73604 11.3033V9.73768C9.73604 8.87425 10.4382 8.17209 11.3016 8.17209H22.1684L21.561 9.38777C21.5069 9.49658 21.4788 9.61635 21.4788 9.73768V12.0861C21.4788 12.5182 21.1273 12.8689 20.696 12.8689H11.3016C10.4382 12.8689 9.73604 12.1667 9.73604 11.3033ZM25.1274 21.0013C24.4683 20.0103 22.9661 18.3484 20.3038 18.3484C17.6415 18.3484 16.1393 20.0103 15.481 21.0005C15.1287 21.5289 15.1279 22.2123 15.481 22.7415C16.1401 23.7325 17.6431 25.3944 20.3046 25.3944C22.9661 25.3944 24.469 23.7325 25.1282 22.7415C25.4796 22.2131 25.4788 21.5297 25.1274 21.0013ZM23.824 21.8741C23.2314 22.7657 22.1394 23.828 20.3038 23.828C18.4681 23.828 17.3769 22.7657 16.7843 21.8679C17.3769 20.9763 18.4681 19.914 20.3038 19.914C22.1394 19.914 23.2307 20.9763 23.824 21.8679V21.8741ZM21.4584 21.871C21.4584 22.52 20.9332 23.0452 20.2842 23.0452C19.6353 23.0452 19.11 22.52 19.11 21.871C19.11 21.2221 19.6353 20.6968 20.2842 20.6968C20.9332 20.6968 21.4584 21.2221 21.4584 21.871Z" fill="white" style="fill:white;fill-opacity:1;"/>
</g>
<defs>
<clipPath id="clip0_3677_112">
<rect width="18.7871" height="18.7871" fill="white" style="fill:white;fill-opacity:1;" transform="translate(6.60486 6.60645)"/>
</clipPath>
</defs>
</svg>
