<svg width="176" height="176" viewBox="0 0 176 176" fill="none" xmlns="http://www.w3.org/2000/svg">
<path d="M124.667 14.666H51.3337C31.0832 14.666 14.667 31.0822 14.667 51.3327V124.666C14.667 144.916 31.0832 161.333 51.3337 161.333H124.667C144.917 161.333 161.334 144.916 161.334 124.666V51.3327C161.334 31.0822 144.917 14.666 124.667 14.666Z" stroke="white" style="stroke:white;stroke-opacity:1;" stroke-width="14.6667" stroke-linecap="round" stroke-linejoin="round"/>
<path d="M117.331 83.3822C118.236 89.4853 117.193 95.7185 114.352 101.195C111.51 106.672 107.014 111.113 101.503 113.886C95.9916 116.66 89.7461 117.626 83.6546 116.646C77.5631 115.666 71.9358 112.789 67.573 108.427C63.2103 104.064 60.3342 98.4366 59.354 92.3451C58.3738 86.2536 59.3393 80.0081 62.1133 74.497C64.8872 68.9858 69.3282 64.4896 74.8047 61.648C80.2813 58.8063 86.5144 57.7639 92.6175 58.6689C98.843 59.592 104.606 62.4929 109.057 66.9431C113.507 71.3933 116.408 77.1568 117.331 83.3822Z" stroke="white" style="stroke:white;stroke-opacity:1;" stroke-width="14.6667" stroke-linecap="round" stroke-linejoin="round"/>
<path d="M128.333 47.666H128.406" stroke="white" style="stroke:white;stroke-opacity:1;" stroke-width="14.6667" stroke-linecap="round" stroke-linejoin="round"/>
</svg>
