<svg id="mf9y984q61721625" viewBox="0 0 366 366" xmlns="http://www.w3.org/2000/svg" xmlns:xlink="http://www.w3.org/1999/xlink"><g id="mf9y984q61721625_translate"><g transform="matrix(1,0,0,1,0,0)"><g id="mf9y984q61721625" opacity="1" style="mix-blend-mode:normal"><g><defs><clipPath id="mf9y984q61721625_clipPath" x="-50%" y="-50%" width="200%" height="200%"><path id="mf9y984q61721625_fill_path" d="M0.01,0h365.98c0.00552,0 0.01,0.00448 0.01,0.01v365.98c0,0.00552 -0.00448,0.01 -0.01,0.01h-365.98c-0.00552,0 -0.01,-0.00448 -0.01,-0.01v-365.98c0,-0.00552 0.00448,-0.01 0.01,-0.01z" fill="white" clip-rule="nonzero"></path></clipPath></defs><g clip-path="url(#mf9y984q61721625_clipPath)"><path id="mf9y984q61721625_fill_path" d="M0.01,0h365.98c0.00552,0 0.01,0.00448 0.01,0.01v365.98c0,0.00552 -0.00448,0.01 -0.01,0.01h-365.98c-0.00552,0 -0.01,-0.00448 -0.01,-0.01v-365.98c0,-0.00552 0.00448,-0.01 0.01,-0.01z" fill-rule="nonzero" fill="rgb(255, 255, 255)" fill-opacity="1" style="mix-blend-mode:normal"></path><g id="mf9y984s99097090_translate"><g transform="matrix(1,0,0,1,71,370)"><g id="mf9y984s99097090" opacity="1" style="mix-blend-mode:normal"><g><g><g id="mf9y984t78501463_translate"><g transform="matrix(1,0,0,1,0,0)"><g id="mf9y984t78501463" opacity="1" style="mix-blend-mode:normal"><g><g><defs><clipPath id="mf9y984t78501463_stroke_clip_path" clipPathUnits="userSpaceOnUse"><path id="mf9y984t78501463_stroke_path" d="M2.0192,0h220.091c1.11517,0 2.0192,0.90403 2.0192,2.0192v220.091c0,1.11517 -0.90403,2.0192 -2.0192,2.0192h-220.091c-1.11517,0 -2.0192,-0.90403 -2.0192,-2.0192v-220.091c0,-1.11517 0.90403,-2.0192 2.0192,-2.0192z"></path></clipPath></defs><g style="mix-blend-mode:normal"><g clip-path="url(#mf9y984t78501463_stroke_clip_path)"><path id="mf9y984t78501463_stroke_path" d="M2.0192,0h220.091c1.11517,0 2.0192,0.90403 2.0192,2.0192v220.091c0,1.11517 -0.90403,2.0192 -2.0192,2.0192h-220.091c-1.11517,0 -2.0192,-0.90403 -2.0192,-2.0192v-220.091c0,-1.11517 0.90403,-2.0192 2.0192,-2.0192z" fill="none" stroke="rgb(12, 65, 255)" stroke-width="48.4604" stroke-linecap="butt" stroke-linejoin="miter" stroke-dasharray="0 0" stroke-opacity="1"></path><defs><mask id="mf9y984t78501463_gradient_mask"></mask></defs><rect x="-272.5898" y="-272.5898" width="817.7694000000001" height="817.7694000000001" fill="url(#mf9y984t78501463ps0)" mask="url(#mf9y984t78501463_gradient_mask)"></rect></g></g></g></g></g></g></g><defs><filter data-id="hello-world" id="mf9y985323668773_dropShadow_0" x="-20%" y="-20%" width="140%" height="140%" filterUnits="objectBoundingBox"><feOffset id="mf9y985323668773_dropShadow_0_offset" dx="0" dy="0" in="SourceGraphic" result="mf9y985323668773_dropShadow_0_offset"></feOffset><feGaussianBlur id="mf9y985323668773_dropShadow_0_radius" stdDeviation="0" in="mf9y985323668773_dropShadow_0_offset" result="mf9y985323668773_dropShadow_0_blur"></feGaussianBlur><feFlood flood-color="rgb(0 0 0)" flood-opacity="1" in="mf9y985323668773_dropShadow_0_blur" result="mf9y985323668773_dropShadow_0_color"></feFlood><feComposite operator="in" in="mf9y985323668773_dropShadow_0_color" in2="mf9y985323668773_dropShadow_0_blur" result="mf9y985323668773_dropShadow_0_shadow_result"></feComposite><feMerge><feMergeNode in="mf9y985323668773_dropShadow_0_shadow_result"></feMergeNode><feMergeNode in="SourceGraphic"></feMergeNode></feMerge></filter></defs><g filter="url(#mf9y985323668773_dropShadow_0)"><g id="mf9y985323668773_translate"><g transform="matrix(1,0,0,1,41.3945,41.3928)"><g id="mf9y985323668773" opacity="1" style="mix-blend-mode:normal"><g><g><path id="mf9y985323668773_fill_path" d="M0.01,0h141.3228c0.00552,0 0.01,0.00448 0.01,0.01v141.3228c0,0.00552 -0.00448,0.01 -0.01,0.01h-141.3228c-0.00552,0 -0.01,-0.00448 -0.01,-0.01v-141.3228c0,-0.00552 0.00448,-0.01 0.01,-0.01z" fill-rule="nonzero" fill="rgb(12, 65, 255)" fill-opacity="1" style="mix-blend-mode:normal"></path></g></g></g></g></g></g><g id="mf9y985668211005_translate"><g transform="matrix(0.6155985339765032,-0.7879330269546899,0.7879330269546899,0.6155985339765032,56.474945546885095,119.9462613359926)"><g id="mf9y985668211005" opacity="1" style="mix-blend-mode:normal"><g><g><path id="mf9y985668211005_fill_path" d="M0.00002,21.12756l40.88845,-21.12756l40.88845,21.12756l-0.00002,57.62061h-81.7769z" fill-rule="nonzero" fill="rgb(255, 255, 255)" fill-opacity="1" style="mix-blend-mode:normal"></path></g></g></g></g></g></g></g></g></g></g></g></g></g></g></g><animateTransform href="#mf9y984s99097090_translate" attributeName="transform" type="translate" values="0 0;0 -299;0 -299" dur="2s" repeatCount="indefinite" calcMode="spline" keyTimes="0;0.75;1" keySplines="0.67 0.03 0.51 0.97;0.5 0.35 0.51 0.97" additive="sum" fill="freeze"></animateTransform><animate href="#mf9y985323668773_fill_path" attributeName="d" values="M0.01,0h141.3228c0.00552,0 0.01,0.00448 0.01,0.01v141.3228c0,0.00552 -0.00448,0.01 -0.01,0.01h-141.3228c-0.00552,0 -0.01,-0.00448 -0.01,-0.01v-141.3228c0,-0.00552 0.00448,-0.01 0.01,-0.01z;M0.01,0h141.3228c0.00552,0 0.01,0.00448 0.01,0.01v141.3228c0,0.00552 -0.00448,0.01 -0.01,0.01h-141.3228c-0.00552,0 -0.01,-0.00448 -0.01,-0.01v-141.3228c0,-0.00552 0.00448,-0.01 0.01,-0.01z" dur="2s" repeatCount="indefinite" keyTimes="0;1" fill="freeze"></animate><animateTransform href="#mf9y985668211005" attributeName="transform" type="rotate" values="0 40.8885 39.3741;0 40.8885 39.3741;0 40.8885 39.3741;-128 40.8885 39.3741;-128 40.8885 39.3741" dur="2s" repeatCount="indefinite" calcMode="spline" keyTimes="0;0.05;0.35;0.74;1" keySplines="0.5 0.35 0.15 1;0.5 0.35 0.15 1;0.5 0.35 0.15 1;0.5 0.35 0.15 1" additive="sum" fill="freeze"></animateTransform></svg>