<svg width="146" height="30" viewBox="0 0 146 30" fill="none" xmlns="http://www.w3.org/2000/svg">
<path d="M42.0848 22.9006C40.6835 22.9006 39.434 22.5831 38.3364 21.948C37.2388 21.306 36.3725 20.3913 35.7374 19.204C35.1093 18.0167 34.7952 16.6016 34.7952 14.9586C34.7952 13.3019 35.1093 11.8799 35.7374 10.6925C36.3725 9.50522 37.2388 8.59403 38.3364 7.95894C39.4409 7.31696 40.6904 6.99597 42.0848 6.99597C42.9822 6.99597 43.814 7.12712 44.5802 7.38944C45.3534 7.65176 46.0368 8.02797 46.6305 8.51809C47.2241 9.00821 47.7108 9.60187 48.0904 10.2991C48.4276 10.9011 48.6624 11.5714 48.7947 12.31C48.8258 12.4836 48.6894 12.6392 48.5131 12.6392H45.8752C45.7364 12.6392 45.6179 12.5409 45.5835 12.4064C45.4925 12.0508 45.3617 11.7281 45.1912 11.4381C44.991 11.086 44.739 10.7892 44.4353 10.5476C44.1315 10.306 43.7864 10.123 43.3998 9.99879C43.0133 9.86764 42.5922 9.80206 42.1366 9.80206C41.2806 9.80206 40.542 10.0126 39.9207 10.4337C39.3063 10.8479 38.83 11.4415 38.4918 12.2147C38.1604 12.9809 37.9947 13.8956 37.9947 14.9586C37.9947 16.0217 38.1604 16.9364 38.4918 17.7026C38.83 18.4688 39.3063 19.059 39.9207 19.4732C40.542 19.8874 41.2806 20.0945 42.1366 20.0945C42.5922 20.0945 43.0098 20.0324 43.3895 19.9081C43.776 19.777 44.1212 19.5906 44.4249 19.349C44.7287 19.1074 44.9841 18.814 45.1912 18.4688C45.3613 18.1795 45.4919 17.8599 45.5828 17.51C45.6177 17.3759 45.736 17.2781 45.8745 17.2781H48.5136C48.6898 17.2781 48.8261 17.4334 48.795 17.6068C48.6689 18.3083 48.4444 18.9581 48.1215 19.5561C47.7487 20.2395 47.2655 20.8331 46.6719 21.3371C46.0782 21.8341 45.3948 22.2206 44.6217 22.4968C43.8485 22.766 43.0029 22.9006 42.0848 22.9006Z" fill="white" style="fill:white;fill-opacity:1;"/>
<path d="M57.5235 22.9006C56.1429 22.9006 54.9038 22.5796 53.8062 21.9376C52.7086 21.2956 51.8423 20.381 51.2072 19.1937C50.579 18.0063 50.2649 16.5947 50.2649 14.9586C50.2649 13.3088 50.579 11.8902 51.2072 10.7029C51.8423 9.50868 52.7086 8.59403 53.8062 7.95894C54.9038 7.31696 56.1429 6.99597 57.5235 6.99597C58.9041 6.99597 60.1397 7.31696 61.2304 7.95894C62.3211 8.59403 63.184 9.50868 63.8191 10.7029C64.4541 11.8902 64.7717 13.3088 64.7717 14.9586C64.7717 16.6016 64.4541 18.0167 63.8191 19.204C63.184 20.3913 62.3211 21.306 61.2304 21.948C60.1397 22.5831 58.9041 22.9006 57.5235 22.9006ZM57.5235 20.0945C58.3173 20.0945 59.018 19.8943 59.6254 19.4939C60.2329 19.0936 60.7092 18.5103 61.0544 17.744C61.3995 16.9778 61.5721 16.0493 61.5721 14.9586C61.5721 13.8611 61.3995 12.9291 61.0544 12.1629C60.7092 11.3898 60.2329 10.803 59.6254 10.4026C59.018 10.0022 58.3173 9.80206 57.5235 9.80206C56.7296 9.80206 56.0255 10.0022 55.4111 10.4026C54.8037 10.803 54.3274 11.3898 53.9822 12.1629C53.637 12.9291 53.4645 13.8611 53.4645 14.9586C53.4645 16.0493 53.637 16.9778 53.9822 17.744C54.3274 18.5103 54.8037 19.0936 55.4111 19.4939C56.0255 19.8943 56.7296 20.0945 57.5235 20.0945Z" fill="white" style="fill:white;fill-opacity:1;"/>
<path d="M66.8409 22.6624C66.68 22.6624 66.5496 22.532 66.5496 22.3711V7.52542C66.5496 7.36454 66.68 7.23412 66.8409 7.23412H71.0447C71.1681 7.23412 71.2781 7.31187 71.3193 7.4282L73.7874 14.3995C73.891 14.7239 74.0118 15.1278 74.1498 15.611C74.2948 16.0942 74.4398 16.605 74.5847 17.1435C74.7366 17.6819 75.0185 18.6768 75.1427 19.1669C75.0599 18.8287 75.2739 19.657 75.1427 19.1669H75.7247L75.1427 17.1435C75.2946 16.605 75.5753 16.1045 75.7134 15.6213C75.8515 15.1312 75.9723 14.7239 76.0758 14.3995L78.5032 7.42961C78.5439 7.31256 78.6543 7.23412 78.7783 7.23412H82.9809C83.1418 7.23412 83.2722 7.36454 83.2722 7.52542V22.3711C83.2722 22.532 83.1418 22.6624 82.9809 22.6624H80.4364C80.2756 22.6624 80.1452 22.532 80.1452 22.3711V15.3418C80.1452 14.9966 80.1486 14.5859 80.1555 14.1096C80.1693 13.6263 80.1831 13.1086 80.1969 12.5564C80.2107 12.0041 80.2245 11.4484 80.2383 10.8893C80.2522 10.3232 80.2625 9.78825 80.2694 9.28433H80.6111C80.4592 9.83657 80.297 10.4026 80.1244 10.9825C79.9588 11.5623 79.7965 12.1284 79.6378 12.6806C79.479 13.226 79.3271 13.7264 79.1822 14.182C79.0441 14.6376 78.9233 15.0242 78.8198 15.3418L76.2896 22.4686C76.2483 22.5848 76.1384 22.6624 76.0151 22.6624H73.8266C73.7037 22.6624 73.594 22.5853 73.5525 22.4696L70.9917 15.3418C70.8882 15.0311 70.7639 14.648 70.6189 14.1924C70.474 13.7299 70.3187 13.226 70.153 12.6806C69.9873 12.1353 69.8182 11.5727 69.6456 10.9928C69.4799 10.4061 69.3143 9.83657 69.1486 9.28433H69.5628C69.5628 9.78135 69.5697 10.3129 69.5835 10.8789C69.5973 11.4381 69.6111 11.9938 69.6249 12.546C69.6456 13.0983 69.6594 13.616 69.6663 14.0992C69.6801 14.5824 69.687 14.9966 69.687 15.3418V22.3711C69.687 22.532 69.5566 22.6624 69.3957 22.6624H66.8409Z" fill="white" style="fill:white;fill-opacity:1;"/>
<path d="M85.2387 22.6624C85.0381 22.6624 84.8976 22.4645 84.9637 22.2752L90.1447 7.42943C90.1855 7.31247 90.2959 7.23412 90.4197 7.23412H94.1172C94.2409 7.23412 94.3511 7.31223 94.392 7.42894L99.603 22.2747C99.6695 22.4641 99.5289 22.6624 99.3281 22.6624H96.4199C96.2937 22.6624 96.1818 22.5811 96.1428 22.4611L93.7748 15.1657C93.478 14.1855 93.1708 13.1638 92.8533 12.1008C92.5427 11.0308 92.2079 9.82967 91.8489 8.49738H92.6876C92.3218 9.82967 91.9835 11.0308 91.6729 12.1008C91.3622 13.1707 91.055 14.1924 90.7513 15.1657L88.3426 22.4625C88.3032 22.5818 88.1917 22.6624 88.066 22.6624H85.2387ZM89.4011 19.2558L91.8921 16.7189H96.3324V19.2558H89.4011Z" fill="white" style="fill:white;fill-opacity:1;"/>
<path d="M101.418 22.6624C101.257 22.6624 101.127 22.532 101.127 22.3711V7.52542C101.127 7.36454 101.257 7.23412 101.418 7.23412H104.362C104.462 7.23412 104.555 7.28566 104.609 7.37056L109.462 15.1036C109.635 15.3797 109.838 15.7283 110.073 16.1494C110.315 16.5705 110.567 17.0261 110.829 17.5162C111.091 18.0063 111.343 18.4999 111.585 18.9969L111.233 19.6389C111.205 19.1419 111.177 18.5862 111.15 17.9718C111.129 17.3505 111.112 16.7569 111.098 16.1908C111.084 15.6179 111.077 15.1588 111.077 14.8137V7.52542C111.077 7.36454 111.208 7.23412 111.369 7.23412H113.986C114.146 7.23412 114.277 7.36454 114.277 7.52542V22.3711C114.277 22.532 114.146 22.6624 113.986 22.6624H111.031C110.931 22.6624 110.838 22.611 110.785 22.5261L106.387 15.5281C106.173 15.183 105.924 14.7688 105.641 14.2856C105.358 13.8024 105.048 13.2536 104.709 12.6392C104.378 12.0248 104.019 11.3621 103.632 10.6511L104.15 10.3716C104.198 11.124 104.233 11.8385 104.254 12.515C104.281 13.1846 104.299 13.7782 104.305 14.2959C104.319 14.8068 104.326 15.214 104.326 15.5178V22.3711C104.326 22.532 104.196 22.6624 104.035 22.6624H101.418Z" fill="white" style="fill:white;fill-opacity:1;"/>
<path d="M122.126 22.6624H118.139V19.9703H121.96C122.989 19.9703 123.841 19.7804 124.518 19.4007C125.194 19.0211 125.698 18.4585 126.029 17.713C126.361 16.9605 126.526 16.0355 126.526 14.9379C126.526 13.8403 126.361 12.9222 126.029 12.1836C125.698 11.4381 125.194 10.8755 124.518 10.4958C123.848 10.1161 123.006 9.92631 121.991 9.92631H118.067V7.23412H122.188C123.734 7.23412 125.07 7.54821 126.195 8.17639C127.32 8.79766 128.19 9.6847 128.804 10.8375C129.419 11.9903 129.726 13.3571 129.726 14.9379C129.726 16.5256 129.419 17.8993 128.804 19.059C128.197 20.2119 127.324 21.1024 126.185 21.7305C125.053 22.3518 123.7 22.6624 122.126 22.6624ZM119.858 7.23412V22.6624H116.97C116.81 22.6624 116.679 22.532 116.679 22.3711V7.52542C116.679 7.36454 116.81 7.23412 116.97 7.23412H119.858Z" fill="white" style="fill:white;fill-opacity:1;"/>
<path d="M138.434 22.9006C137.054 22.9006 135.814 22.5796 134.717 21.9376C133.619 21.2956 132.753 20.381 132.118 19.1937C131.49 18.0063 131.176 16.5947 131.176 14.9586C131.176 13.3088 131.49 11.8902 132.118 10.7029C132.753 9.50868 133.619 8.59403 134.717 7.95894C135.814 7.31696 137.054 6.99597 138.434 6.99597C139.815 6.99597 141.05 7.31696 142.141 7.95894C143.232 8.59403 144.095 9.50868 144.73 10.7029C145.365 11.8902 145.682 13.3088 145.682 14.9586C145.682 16.6016 145.365 18.0167 144.73 19.204C144.095 20.3913 143.232 21.306 142.141 21.948C141.05 22.5831 139.815 22.9006 138.434 22.9006ZM138.434 20.0945C139.228 20.0945 139.929 19.8943 140.536 19.4939C141.144 19.0936 141.62 18.5103 141.965 17.744C142.31 16.9778 142.483 16.0493 142.483 14.9586C142.483 13.8611 142.31 12.9291 141.965 12.1629C141.62 11.3898 141.144 10.803 140.536 10.4026C139.929 10.0022 139.228 9.80206 138.434 9.80206C137.64 9.80206 136.936 10.0022 136.322 10.4026C135.714 10.803 135.238 11.3898 134.893 12.1629C134.548 12.9291 134.375 13.8611 134.375 14.9586C134.375 16.0493 134.548 16.9778 134.893 17.744C135.238 18.5103 135.714 19.0936 136.322 19.4939C136.936 19.8943 137.64 20.0945 138.434 20.0945Z" fill="white" style="fill:white;fill-opacity:1;"/>
<mask id="path-2-inside-1_3603_6482" fill="white">
<rect y="0.435318" width="29.1294" height="29.1294" rx="0.262427"/>
</mask>
<rect y="0.435318" width="29.1294" height="29.1294" rx="0.262427" stroke="#0C41FF" style="stroke:#0C41FF;stroke:color(display-p3 0.0481 0.2543 1.0000);stroke-opacity:1;" stroke-width="6.29824" mask="url(#path-2-inside-1_3603_6482)"/>
<g filter="url(#filter0_d_3603_6482)">
<rect x="5.37988" y="5.81501" width="18.3699" height="18.3699" fill="#0C41FF" style="fill:#0C41FF;fill:color(display-p3 0.0481 0.2543 1.0000);fill-opacity:1;"/>
</g>
<path d="M19.9443 17.3714L14.6302 20.1173L9.31606 17.3714L9.31606 9.88264L19.9443 9.88264L19.9443 17.3714Z" fill="white" style="fill:white;fill-opacity:1;"/>
<defs>
<filter id="filter0_d_3603_6482" x="5.37988" y="5.81501" width="18.3699" height="18.3699" filterUnits="userSpaceOnUse" color-interpolation-filters="sRGB">
<feFlood flood-opacity="0" result="BackgroundImageFix"/>
<feColorMatrix in="SourceAlpha" type="matrix" values="0 0 0 0 0 0 0 0 0 0 0 0 0 0 0 0 0 0 127 0" result="hardAlpha"/>
<feOffset/>
<feComposite in2="hardAlpha" operator="out"/>
<feColorMatrix type="matrix" values="0 0 0 0 0 0 0 0 0 0 0 0 0 0 0 0 0 0 1 0"/>
<feBlend mode="normal" in2="BackgroundImageFix" result="effect1_dropShadow_3603_6482"/>
<feBlend mode="normal" in="SourceGraphic" in2="effect1_dropShadow_3603_6482" result="shape"/>
</filter>
</defs>
</svg>
