<svg width="32" height="32" viewBox="0 0 32 32" fill="none" xmlns="http://www.w3.org/2000/svg">
<rect x="-0.00158691" width="32" height="32" rx="2.73135" fill="#0C41FF" style="fill:#0C41FF;fill:color(display-p3 0.0481 0.2543 1.0000);fill-opacity:1;"/>
<g clip-path="url(#clip0_3677_124)">
<path d="M11.3016 13.6516C11.3016 14.9722 11.8621 16.2387 12.8398 17.1272C13.7056 17.9147 14.8407 18.3476 16.0086 18.3476C16.1573 18.3476 16.3076 18.3406 16.4571 18.3265C18.8337 18.0995 20.6952 15.9726 20.6952 13.4833V12.8688H21.478V11.3032H20.6952V10.9118C20.6952 8.5376 18.764 6.60645 16.3898 6.60645H15.607C13.2328 6.60645 11.3016 8.5376 11.3016 10.9118V11.3032H10.5188V12.8688H11.3016V13.6516ZM19.1296 13.4833C19.1296 15.1741 17.8904 16.6168 16.3084 16.7679C15.4121 16.8525 14.5534 16.5699 13.8927 15.9687C13.2406 15.3761 12.8672 14.5315 12.8672 13.6516V12.8688H19.1296V13.4833ZM12.8672 10.9118C12.8672 9.5341 13.8896 8.39044 15.2156 8.20022V10.5204H16.7812V8.20022C18.1073 8.39044 19.1296 9.5341 19.1296 10.9118V11.3032H12.8672V10.9118ZM23.0436 23.0452V25.3935H21.478V23.0452C21.478 21.7504 20.4243 20.6968 19.1296 20.6968H12.8672C11.5725 20.6968 10.5188 21.7504 10.5188 23.0452V25.3935H8.95325V23.0452C8.95325 20.887 10.7091 19.1312 12.8672 19.1312H19.1296C21.2878 19.1312 23.0436 20.887 23.0436 23.0452Z" fill="white" style="fill:white;fill-opacity:1;"/>
</g>
<defs>
<clipPath id="clip0_3677_124">
<rect width="18.7871" height="18.7871" fill="white" style="fill:white;fill-opacity:1;" transform="translate(6.60486 6.60645)"/>
</clipPath>
</defs>
</svg>
