<svg width="157" height="157" viewBox="0 0 157 157" fill="none" xmlns="http://www.w3.org/2000/svg">
<g clip-path="url(#clip0_130_71)">
<path fill-rule="evenodd" clip-rule="evenodd" d="M133.862 22.8173C119.17 8.11167 99.6363 0.00654167 78.8272 0C35.9466 0 1.04684 34.8932 1.02721 77.7935C1.02067 91.5048 4.6055 104.889 11.4154 116.69L0.373047 157L41.6117 146.18C52.9746 152.382 65.7701 155.646 78.788 155.652H78.8207C121.695 155.652 156.601 120.753 156.621 77.8524C156.634 57.0695 148.548 37.5165 133.862 22.8173ZM78.8272 142.51H78.8011C67.1962 142.51 55.8202 139.39 45.89 133.496L43.5284 132.096L19.056 138.513L25.5912 114.649L24.0539 112.203C17.5776 101.906 14.1629 90.0068 14.1694 77.7935C14.1825 42.1414 43.1948 13.1357 78.86 13.1357C96.13 13.1357 112.366 19.8736 124.573 32.0934C136.78 44.3198 143.498 60.5627 143.492 77.8393C143.472 113.504 114.466 142.51 78.8272 142.51ZM114.296 94.0822C112.353 93.1075 102.796 88.4041 101.01 87.7565C99.2307 87.1088 97.9355 86.7817 96.6337 88.7246C95.3319 90.6675 91.6162 95.0504 90.478 96.3522C89.3462 97.6475 88.208 97.811 86.2651 96.8363C84.3222 95.8616 78.0553 93.814 70.6305 87.1873C64.8542 82.0325 60.9489 75.6675 59.8172 73.718C58.6855 71.7686 59.6994 70.722 60.6676 69.7538C61.5442 68.8837 62.6105 67.4838 63.5852 66.3456C64.5664 65.2204 64.887 64.4093 65.5411 63.1075C66.1887 61.8122 65.8682 60.674 65.3776 59.6993C64.887 58.7311 61.0012 49.1606 59.3854 45.2683C57.8089 41.4742 56.2062 41.991 55.009 41.9321C53.8773 41.8732 52.5821 41.8667 51.2803 41.8667C49.985 41.8667 47.8786 42.3507 46.0993 44.3002C44.32 46.2496 39.296 50.953 39.296 60.517C39.296 70.0874 46.2628 79.3308 47.231 80.626C48.1992 81.9213 60.9358 101.559 80.4365 109.978C85.0745 111.98 88.6986 113.177 91.5181 114.074C96.1757 115.552 100.415 115.343 103.764 114.845C107.499 114.289 115.264 110.142 116.887 105.602C118.509 101.062 118.509 97.1634 118.018 96.3587C117.534 95.541 116.239 95.057 114.296 94.0822Z" fill="white" style="fill:white;fill-opacity:1;"/>
</g>
<defs>
<clipPath id="clip0_130_71">
<rect width="157" height="157" fill="white" style="fill:white;fill-opacity:1;"/>
</clipPath>
</defs>
</svg>
